<svg width="1123" height="401" viewBox="0 0 1123 401" fill="none" xmlns="http://www.w3.org/2000/svg">
<path d="M7.01617 266.643C2.51545 271.304 0 277.53 0 284.009V310C0 323.807 11.1929 335 25 335H136.321C142.847 335 149.114 332.448 153.784 327.89L395.716 91.7363C400.386 87.1779 406.653 84.6263 413.179 84.6263H943.5C957.307 84.6263 968.5 95.8192 968.5 109.626V137.242C968.5 151.049 957.307 162.242 943.5 162.242H656.286C643.149 162.242 632.5 151.593 632.5 138.457C632.5 125.32 621.851 114.671 608.714 114.671H517C503.193 114.671 492 125.864 492 139.671V310C492 323.807 503.193 335 517 335H607.5C621.307 335 632.5 323.807 632.5 310V277.377C632.5 263.57 643.693 252.377 657.5 252.377H1063.1C1068.86 252.377 1074.44 250.392 1078.9 246.756L1113.79 218.318C1119.62 213.57 1123 206.453 1123 198.938V63.7607C1123 56.8915 1120.17 50.325 1115.18 45.6033L1074.23 6.84267C1069.59 2.44866 1063.44 0 1057.05 0H275.112C268.33 0 261.839 2.7553 257.128 7.6339L7.01617 266.643Z" fill="#FC3D21"/>
<rect x="555" y="356" width="13" height="45" fill="#FC3D21"/>
<g filter="url(#filter0_n_0_1)">
<mask id="path-3-outside-1_0_1" maskUnits="userSpaceOnUse" x="296" y="360" width="514" height="35" fill="black">
<rect fill="white" x="296" y="360" width="514" height="35"/>
<path d="M300.636 360.4H306.06C308.892 360.4 309.948 360.976 311.196 364.048L321.036 387.088C321.18 387.376 321.42 387.52 321.708 387.52H322.284C322.62 387.52 322.86 387.376 322.956 387.088L332.748 364.048C333.948 360.976 334.956 360.4 337.836 360.4H343.164C346.476 360.4 347.388 361.648 347.388 365.392V392.944C347.388 393.664 347.004 394 346.284 394H341.244C340.572 394 340.188 393.664 340.188 392.944V367.888C340.188 367.552 340.092 367.408 339.852 367.408H339.42C339.036 367.408 338.844 367.504 338.748 367.792L329.484 389.296C328.044 392.896 326.46 394 323.34 394H320.604C317.484 394 315.948 392.896 314.46 389.296L305.1 367.792C304.956 367.504 304.812 367.408 304.476 367.408H304.044C303.756 367.408 303.612 367.552 303.612 367.888V392.944C303.612 393.664 303.276 394 302.556 394H297.516C296.796 394 296.46 393.664 296.46 392.944V365.392C296.46 361.6 297.324 360.4 300.636 360.4ZM366.694 360.4H381.478C391.222 360.4 394.918 363.856 394.918 373.072V381.328C394.918 390.544 391.222 394 381.478 394H366.694C356.95 394 353.254 390.496 353.254 381.328V373.072C353.254 363.904 356.95 360.4 366.694 360.4ZM360.55 373.6V380.8C360.55 385.84 361.942 387.232 366.934 387.232H381.19C386.182 387.232 387.574 385.84 387.574 380.8V373.6C387.574 368.56 386.182 367.168 381.19 367.168H366.934C361.942 367.168 360.55 368.56 360.55 373.6ZM398.838 360.4H436.374C437.094 360.4 437.478 360.736 437.478 361.456V366.16C437.478 366.88 437.094 367.216 436.374 367.216H421.254V392.944C421.254 393.664 420.966 394 420.246 394H415.014C414.342 394 413.958 393.664 413.958 392.944V367.216H398.838C398.166 367.216 397.782 366.88 397.782 366.16V361.456C397.782 360.736 398.166 360.4 398.838 360.4ZM442.706 360.4H447.89C448.61 360.4 448.946 360.736 448.946 361.456V392.944C448.946 393.664 448.61 394 447.89 394H442.706C441.986 394 441.65 393.664 441.65 392.944V361.456C441.65 360.736 441.986 360.4 442.706 360.4ZM468.291 360.4H483.075C492.819 360.4 496.515 363.856 496.515 373.072V381.328C496.515 390.544 492.819 394 483.075 394H468.291C458.547 394 454.851 390.496 454.851 381.328V373.072C454.851 363.904 458.547 360.4 468.291 360.4ZM462.147 373.6V380.8C462.147 385.84 463.539 387.232 468.531 387.232H482.787C487.779 387.232 489.171 385.84 489.171 380.8V373.6C489.171 368.56 487.779 367.168 482.787 367.168H468.531C463.539 367.168 462.147 368.56 462.147 373.6ZM506.7 360.4H511.02C514.476 360.4 515.052 361.12 516.588 363.232L534.252 386.656C534.396 386.896 534.588 386.992 534.876 386.992H535.308C535.548 386.992 535.692 386.848 535.692 386.512V361.456C535.692 360.736 536.028 360.4 536.748 360.4H541.884C542.604 360.4 542.94 360.736 542.94 361.456V389.008C542.94 392.8 541.644 394 538.62 394H534.348C530.892 394 530.316 393.28 528.828 391.168L511.116 367.744C510.924 367.504 510.78 367.408 510.492 367.408H510.06C509.772 367.408 509.676 367.552 509.676 367.888V392.944C509.676 393.664 509.292 394 508.62 394H503.484C502.764 394 502.428 393.664 502.428 392.944V365.392C502.428 361.6 503.676 360.4 506.7 360.4ZM579.281 360.4H585.569C585.953 360.4 586.097 360.544 586.241 361.024L594.161 386.848C594.257 387.088 594.353 387.184 594.545 387.184H594.785C594.977 387.184 595.073 387.088 595.169 386.848L602.801 363.184C603.425 361.12 604.529 360.4 606.353 360.4H611.441C613.553 360.4 614.609 361.12 615.233 363.184L623.009 386.848C623.105 387.088 623.201 387.184 623.441 387.184H623.633C623.873 387.184 623.969 387.088 624.065 386.848L631.841 361.024C631.985 360.544 632.225 360.4 632.561 360.4H638.897C639.329 360.4 639.473 360.88 639.281 361.504L630.257 390.352C629.393 393.184 628.433 394 626.561 394H620.609C618.737 394 617.777 393.184 616.913 390.352L609.521 367.552C609.473 367.312 609.377 367.216 609.185 367.216H608.945C608.753 367.216 608.609 367.312 608.561 367.552L601.169 390.352C600.305 393.232 599.393 394 597.521 394H591.809C589.649 394 588.689 393.28 587.825 390.352L578.897 361.504C578.705 360.832 578.753 360.4 579.281 360.4ZM655.556 360.4H670.34C680.084 360.4 683.78 363.856 683.78 373.072V381.328C683.78 390.544 680.084 394 670.34 394H655.556C645.812 394 642.116 390.496 642.116 381.328V373.072C642.116 363.904 645.812 360.4 655.556 360.4ZM649.412 373.6V380.8C649.412 385.84 650.804 387.232 655.796 387.232H670.052C675.044 387.232 676.436 385.84 676.436 380.8V373.6C676.436 368.56 675.044 367.168 670.052 367.168H655.796C650.804 367.168 649.412 368.56 649.412 373.6ZM691.134 360.4H716.862C724.014 360.4 727.182 363.616 727.182 370.24V373.024C727.182 378.592 724.974 381.856 720.222 382.816L728.238 392.752C728.622 393.232 728.382 394 727.614 394H721.182C720.414 394 720.174 393.808 719.838 393.376L712.206 383.632H696.99V392.944C696.99 393.664 696.654 394 695.934 394H690.75C690.03 394 689.694 393.664 689.694 392.944V361.84C689.694 360.88 690.174 360.4 691.134 360.4ZM696.99 377.296H715.374C718.638 377.296 719.838 376.144 719.838 373.264V371.248C719.838 368.32 718.59 367.12 715.374 367.12H697.614C697.182 367.12 696.99 367.264 696.99 367.648V377.296ZM734.053 360.4H739.237C739.957 360.4 740.293 360.736 740.293 361.456V373.984H746.965C750.229 373.984 751.045 373.696 752.293 372.064L760.645 361.024C760.981 360.544 761.221 360.4 762.037 360.4H768.037C768.757 360.4 768.997 361.072 768.613 361.552L759.301 373.6C758.245 374.992 757.333 376.048 756.421 376.816C757.717 377.632 758.869 378.736 760.069 380.272L769.909 392.752C770.293 393.136 770.101 394 769.285 394H763.189C762.421 394 762.133 393.856 761.797 393.376L752.917 382C751.669 380.368 750.709 380.032 747.589 380.032H740.293V392.944C740.293 393.664 739.957 394 739.237 394H734.053C733.333 394 732.997 393.664 732.997 392.944V361.456C732.997 360.736 733.333 360.4 734.053 360.4ZM781.688 360.4H807.128C807.8 360.4 808.184 360.736 808.184 361.456V366.112C808.184 366.784 807.8 367.168 807.128 367.168H783.08C781.352 367.168 780.536 367.984 780.536 369.76V371.392C780.536 373.12 781.304 373.84 783.08 373.84H801.032C806.408 373.84 809.432 376.912 809.432 382.288V386.176C809.432 391.12 806.456 394 800.936 394H774.344C773.624 394 773.288 393.664 773.288 392.944V388.288C773.288 387.616 773.624 387.232 774.344 387.232H799.544C801.224 387.232 802.088 386.416 802.088 384.64V382.672C802.088 380.944 801.368 380.224 799.592 380.224H781.592C776.216 380.224 773.24 377.152 773.24 371.776V368.224C773.24 363.28 776.168 360.4 781.688 360.4Z"/>
</mask>
<path d="M300.636 360.4H306.06C308.892 360.4 309.948 360.976 311.196 364.048L321.036 387.088C321.18 387.376 321.42 387.52 321.708 387.52H322.284C322.62 387.52 322.86 387.376 322.956 387.088L332.748 364.048C333.948 360.976 334.956 360.4 337.836 360.4H343.164C346.476 360.4 347.388 361.648 347.388 365.392V392.944C347.388 393.664 347.004 394 346.284 394H341.244C340.572 394 340.188 393.664 340.188 392.944V367.888C340.188 367.552 340.092 367.408 339.852 367.408H339.42C339.036 367.408 338.844 367.504 338.748 367.792L329.484 389.296C328.044 392.896 326.46 394 323.34 394H320.604C317.484 394 315.948 392.896 314.46 389.296L305.1 367.792C304.956 367.504 304.812 367.408 304.476 367.408H304.044C303.756 367.408 303.612 367.552 303.612 367.888V392.944C303.612 393.664 303.276 394 302.556 394H297.516C296.796 394 296.46 393.664 296.46 392.944V365.392C296.46 361.6 297.324 360.4 300.636 360.4ZM366.694 360.4H381.478C391.222 360.4 394.918 363.856 394.918 373.072V381.328C394.918 390.544 391.222 394 381.478 394H366.694C356.95 394 353.254 390.496 353.254 381.328V373.072C353.254 363.904 356.95 360.4 366.694 360.4ZM360.55 373.6V380.8C360.55 385.84 361.942 387.232 366.934 387.232H381.19C386.182 387.232 387.574 385.84 387.574 380.8V373.6C387.574 368.56 386.182 367.168 381.19 367.168H366.934C361.942 367.168 360.55 368.56 360.55 373.6ZM398.838 360.4H436.374C437.094 360.4 437.478 360.736 437.478 361.456V366.16C437.478 366.88 437.094 367.216 436.374 367.216H421.254V392.944C421.254 393.664 420.966 394 420.246 394H415.014C414.342 394 413.958 393.664 413.958 392.944V367.216H398.838C398.166 367.216 397.782 366.88 397.782 366.16V361.456C397.782 360.736 398.166 360.4 398.838 360.4ZM442.706 360.4H447.89C448.61 360.4 448.946 360.736 448.946 361.456V392.944C448.946 393.664 448.61 394 447.89 394H442.706C441.986 394 441.65 393.664 441.65 392.944V361.456C441.65 360.736 441.986 360.4 442.706 360.4ZM468.291 360.4H483.075C492.819 360.4 496.515 363.856 496.515 373.072V381.328C496.515 390.544 492.819 394 483.075 394H468.291C458.547 394 454.851 390.496 454.851 381.328V373.072C454.851 363.904 458.547 360.4 468.291 360.4ZM462.147 373.6V380.8C462.147 385.84 463.539 387.232 468.531 387.232H482.787C487.779 387.232 489.171 385.84 489.171 380.8V373.6C489.171 368.56 487.779 367.168 482.787 367.168H468.531C463.539 367.168 462.147 368.56 462.147 373.6ZM506.7 360.4H511.02C514.476 360.4 515.052 361.12 516.588 363.232L534.252 386.656C534.396 386.896 534.588 386.992 534.876 386.992H535.308C535.548 386.992 535.692 386.848 535.692 386.512V361.456C535.692 360.736 536.028 360.4 536.748 360.4H541.884C542.604 360.4 542.94 360.736 542.94 361.456V389.008C542.94 392.8 541.644 394 538.62 394H534.348C530.892 394 530.316 393.28 528.828 391.168L511.116 367.744C510.924 367.504 510.78 367.408 510.492 367.408H510.06C509.772 367.408 509.676 367.552 509.676 367.888V392.944C509.676 393.664 509.292 394 508.62 394H503.484C502.764 394 502.428 393.664 502.428 392.944V365.392C502.428 361.6 503.676 360.4 506.7 360.4ZM579.281 360.4H585.569C585.953 360.4 586.097 360.544 586.241 361.024L594.161 386.848C594.257 387.088 594.353 387.184 594.545 387.184H594.785C594.977 387.184 595.073 387.088 595.169 386.848L602.801 363.184C603.425 361.12 604.529 360.4 606.353 360.4H611.441C613.553 360.4 614.609 361.12 615.233 363.184L623.009 386.848C623.105 387.088 623.201 387.184 623.441 387.184H623.633C623.873 387.184 623.969 387.088 624.065 386.848L631.841 361.024C631.985 360.544 632.225 360.4 632.561 360.4H638.897C639.329 360.4 639.473 360.88 639.281 361.504L630.257 390.352C629.393 393.184 628.433 394 626.561 394H620.609C618.737 394 617.777 393.184 616.913 390.352L609.521 367.552C609.473 367.312 609.377 367.216 609.185 367.216H608.945C608.753 367.216 608.609 367.312 608.561 367.552L601.169 390.352C600.305 393.232 599.393 394 597.521 394H591.809C589.649 394 588.689 393.28 587.825 390.352L578.897 361.504C578.705 360.832 578.753 360.4 579.281 360.4ZM655.556 360.4H670.34C680.084 360.4 683.78 363.856 683.78 373.072V381.328C683.78 390.544 680.084 394 670.34 394H655.556C645.812 394 642.116 390.496 642.116 381.328V373.072C642.116 363.904 645.812 360.4 655.556 360.4ZM649.412 373.6V380.8C649.412 385.84 650.804 387.232 655.796 387.232H670.052C675.044 387.232 676.436 385.84 676.436 380.8V373.6C676.436 368.56 675.044 367.168 670.052 367.168H655.796C650.804 367.168 649.412 368.56 649.412 373.6ZM691.134 360.4H716.862C724.014 360.4 727.182 363.616 727.182 370.24V373.024C727.182 378.592 724.974 381.856 720.222 382.816L728.238 392.752C728.622 393.232 728.382 394 727.614 394H721.182C720.414 394 720.174 393.808 719.838 393.376L712.206 383.632H696.99V392.944C696.99 393.664 696.654 394 695.934 394H690.75C690.03 394 689.694 393.664 689.694 392.944V361.84C689.694 360.88 690.174 360.4 691.134 360.4ZM696.99 377.296H715.374C718.638 377.296 719.838 376.144 719.838 373.264V371.248C719.838 368.32 718.59 367.12 715.374 367.12H697.614C697.182 367.12 696.99 367.264 696.99 367.648V377.296ZM734.053 360.4H739.237C739.957 360.4 740.293 360.736 740.293 361.456V373.984H746.965C750.229 373.984 751.045 373.696 752.293 372.064L760.645 361.024C760.981 360.544 761.221 360.4 762.037 360.4H768.037C768.757 360.4 768.997 361.072 768.613 361.552L759.301 373.6C758.245 374.992 757.333 376.048 756.421 376.816C757.717 377.632 758.869 378.736 760.069 380.272L769.909 392.752C770.293 393.136 770.101 394 769.285 394H763.189C762.421 394 762.133 393.856 761.797 393.376L752.917 382C751.669 380.368 750.709 380.032 747.589 380.032H740.293V392.944C740.293 393.664 739.957 394 739.237 394H734.053C733.333 394 732.997 393.664 732.997 392.944V361.456C732.997 360.736 733.333 360.4 734.053 360.4ZM781.688 360.4H807.128C807.8 360.4 808.184 360.736 808.184 361.456V366.112C808.184 366.784 807.8 367.168 807.128 367.168H783.08C781.352 367.168 780.536 367.984 780.536 369.76V371.392C780.536 373.12 781.304 373.84 783.08 373.84H801.032C806.408 373.84 809.432 376.912 809.432 382.288V386.176C809.432 391.12 806.456 394 800.936 394H774.344C773.624 394 773.288 393.664 773.288 392.944V388.288C773.288 387.616 773.624 387.232 774.344 387.232H799.544C801.224 387.232 802.088 386.416 802.088 384.64V382.672C802.088 380.944 801.368 380.224 799.592 380.224H781.592C776.216 380.224 773.24 377.152 773.24 371.776V368.224C773.24 363.28 776.168 360.4 781.688 360.4Z" fill="#FFC857"/>
<path d="M311.196 364.048L310.964 364.142L310.966 364.146L311.196 364.048ZM321.036 387.088L320.806 387.186L320.809 387.193L320.812 387.2L321.036 387.088ZM322.956 387.088L322.726 386.99L322.722 386.999L322.719 387.009L322.956 387.088ZM332.748 364.048L332.978 364.146L332.981 364.139L332.748 364.048ZM338.748 367.792L338.977 367.891L338.982 367.881L338.985 367.871L338.748 367.792ZM329.484 389.296L329.254 389.197L329.252 389.203L329.484 389.296ZM314.46 389.296L314.691 389.2L314.689 389.196L314.46 389.296ZM305.1 367.792L305.329 367.692L305.323 367.68L305.1 367.792ZM300.636 360.4V360.65H306.06V360.4V360.15H300.636V360.4ZM306.06 360.4V360.65C307.468 360.65 308.373 360.796 309.081 361.279C309.791 361.763 310.344 362.615 310.964 364.142L311.196 364.048L311.427 363.954C310.8 362.409 310.201 361.437 309.363 360.865C308.522 360.292 307.483 360.15 306.06 360.15V360.4ZM311.196 364.048L310.966 364.146L320.806 387.186L321.036 387.088L321.266 386.99L311.426 363.95L311.196 364.048ZM321.036 387.088L320.812 387.2C320.997 387.569 321.321 387.77 321.708 387.77V387.52V387.27C321.518 387.27 321.363 387.183 321.259 386.976L321.036 387.088ZM321.708 387.52V387.77H322.284V387.52V387.27H321.708V387.52ZM322.284 387.52V387.77C322.486 387.77 322.68 387.727 322.843 387.623C323.01 387.518 323.128 387.362 323.193 387.167L322.956 387.088L322.719 387.009C322.687 387.102 322.638 387.162 322.576 387.201C322.512 387.241 322.417 387.27 322.284 387.27V387.52ZM322.956 387.088L323.186 387.186L332.978 364.146L332.748 364.048L332.518 363.95L322.726 386.99L322.956 387.088ZM332.748 364.048L332.981 364.139C333.578 362.61 334.108 361.76 334.804 361.277C335.499 360.796 336.402 360.65 337.836 360.65V360.4V360.15C336.389 360.15 335.349 360.292 334.519 360.867C333.692 361.44 333.118 362.414 332.515 363.957L332.748 364.048ZM337.836 360.4V360.65H343.164V360.4V360.15H337.836V360.4ZM343.164 360.4V360.65C344.801 360.65 345.757 360.961 346.325 361.651C346.905 362.356 347.138 363.522 347.138 365.392H347.388H347.638C347.638 363.518 347.414 362.188 346.711 361.333C345.995 360.463 344.839 360.15 343.164 360.15V360.4ZM347.388 365.392H347.138V392.944H347.388H347.638V365.392H347.388ZM347.388 392.944H347.138C347.138 393.261 347.054 393.448 346.935 393.559C346.813 393.674 346.609 393.75 346.284 393.75V394V394.25C346.678 394.25 347.027 394.158 347.277 393.925C347.53 393.688 347.638 393.347 347.638 392.944H347.388ZM346.284 394V393.75H341.244V394V394.25H346.284V394ZM341.244 394V393.75C340.946 393.75 340.755 393.676 340.638 393.562C340.522 393.45 340.438 393.261 340.438 392.944H340.188H339.938C339.938 393.347 340.046 393.686 340.29 393.922C340.533 394.156 340.869 394.25 341.244 394.25V394ZM340.188 392.944H340.438V367.888H340.188H339.938V392.944H340.188ZM340.188 367.888H340.438C340.438 367.708 340.414 367.523 340.315 367.38C340.201 367.214 340.026 367.158 339.852 367.158V367.408V367.658C339.888 367.658 339.902 367.664 339.905 367.665C339.906 367.665 339.905 367.665 339.904 367.664C339.903 367.663 339.903 367.663 339.904 367.664C339.907 367.668 339.916 367.684 339.924 367.723C339.932 367.761 339.938 367.815 339.938 367.888H340.188ZM339.852 367.408V367.158H339.42V367.408V367.658H339.852V367.408ZM339.42 367.408V367.158C339.213 367.158 339.018 367.182 338.854 367.273C338.679 367.371 338.573 367.526 338.511 367.713L338.748 367.792L338.985 367.871C339.018 367.77 339.057 367.733 339.097 367.711C339.149 367.682 339.242 367.658 339.42 367.658V367.408ZM338.748 367.792L338.518 367.693L329.254 389.197L329.484 389.296L329.713 389.395L338.977 367.891L338.748 367.792ZM329.484 389.296L329.252 389.203C328.538 390.987 327.803 392.113 326.892 392.798C325.986 393.479 324.871 393.75 323.34 393.75V394V394.25C324.928 394.25 326.166 393.969 327.192 393.198C328.212 392.431 328.989 391.205 329.716 389.389L329.484 389.296ZM323.34 394V393.75H320.604V394V394.25H323.34V394ZM320.604 394V393.75C319.073 393.75 317.97 393.479 317.071 392.799C316.164 392.113 315.429 390.986 314.691 389.201L314.46 389.296L314.229 389.391C314.979 391.206 315.756 392.431 316.769 393.197C317.789 393.969 319.015 394.25 320.604 394.25V394ZM314.46 389.296L314.689 389.196L305.329 367.692L305.1 367.792L304.871 367.892L314.231 389.396L314.46 389.296ZM305.1 367.792L305.323 367.68C305.243 367.52 305.145 367.376 304.992 367.28C304.839 367.184 304.664 367.158 304.476 367.158V367.408V367.658C304.623 367.658 304.689 367.68 304.727 367.704C304.766 367.728 304.812 367.776 304.876 367.904L305.1 367.792ZM304.476 367.408V367.158H304.044V367.408V367.658H304.476V367.408ZM304.044 367.408V367.158C303.861 367.158 303.673 367.204 303.536 367.352C303.403 367.496 303.362 367.691 303.362 367.888H303.612H303.862C303.862 367.749 303.892 367.704 303.903 367.692C303.911 367.684 303.938 367.658 304.044 367.658V367.408ZM303.612 367.888H303.362V392.944H303.612H303.862V367.888H303.612ZM303.612 392.944H303.362C303.362 393.27 303.285 393.457 303.177 393.565C303.069 393.674 302.882 393.75 302.556 393.75V394V394.25C302.95 394.25 303.291 394.158 303.531 393.919C303.77 393.679 303.862 393.338 303.862 392.944H303.612ZM302.556 394V393.75H297.516V394V394.25H302.556V394ZM297.516 394V393.75C297.19 393.75 297.003 393.674 296.895 393.565C296.786 393.457 296.71 393.27 296.71 392.944H296.46H296.21C296.21 393.338 296.301 393.679 296.541 393.919C296.781 394.158 297.122 394.25 297.516 394.25V394ZM296.46 392.944H296.71V365.392H296.46H296.21V392.944H296.46ZM296.46 365.392H296.71C296.71 363.495 296.931 362.331 297.5 361.632C298.055 360.95 298.996 360.65 300.636 360.65V360.4V360.15C298.963 360.15 297.817 360.45 297.112 361.316C296.421 362.165 296.21 363.497 296.21 365.392H296.46ZM366.694 360.4V360.65H381.478V360.4V360.15H366.694V360.4ZM381.478 360.4V360.65C386.332 360.65 389.61 361.513 391.681 363.462C393.747 365.407 394.668 368.488 394.668 373.072H394.918H395.168C395.168 368.44 394.241 365.185 392.023 363.098C389.81 361.015 386.368 360.15 381.478 360.15V360.4ZM394.918 373.072H394.668V381.328H394.918H395.168V373.072H394.918ZM394.918 381.328H394.668C394.668 385.912 393.747 388.993 391.681 390.938C389.61 392.887 386.332 393.75 381.478 393.75V394V394.25C386.368 394.25 389.81 393.385 392.023 391.302C394.241 389.215 395.168 385.96 395.168 381.328H394.918ZM381.478 394V393.75H366.694V394V394.25H381.478V394ZM366.694 394V393.75C361.841 393.75 358.562 392.875 356.491 390.92C354.424 388.969 353.504 385.887 353.504 381.328H353.254H353.004C353.004 385.937 353.931 389.191 356.148 391.284C358.361 393.373 361.803 394.25 366.694 394.25V394ZM353.254 381.328H353.504V373.072H353.254H353.004V381.328H353.254ZM353.254 373.072H353.504C353.504 368.513 354.424 365.431 356.491 363.48C358.562 361.525 361.841 360.65 366.694 360.65V360.4V360.15C361.803 360.15 358.361 361.027 356.148 363.116C353.931 365.209 353.004 368.463 353.004 373.072H353.254ZM360.55 373.6H360.3V380.8H360.55H360.8V373.6H360.55ZM360.55 380.8H360.3C360.3 383.323 360.643 385.027 361.693 386.082C362.742 387.138 364.434 387.482 366.934 387.482V387.232V386.982C364.442 386.982 362.941 386.63 362.047 385.73C361.152 384.829 360.8 383.317 360.8 380.8H360.55ZM366.934 387.232V387.482H381.19V387.232V386.982H366.934V387.232ZM381.19 387.232V387.482C383.69 387.482 385.381 387.138 386.431 386.082C387.48 385.027 387.824 383.323 387.824 380.8H387.574H387.324C387.324 383.317 386.971 384.829 386.077 385.73C385.182 386.63 383.682 386.982 381.19 386.982V387.232ZM387.574 380.8H387.824V373.6H387.574H387.324V380.8H387.574ZM387.574 373.6H387.824C387.824 371.077 387.48 369.373 386.431 368.318C385.381 367.262 383.69 366.918 381.19 366.918V367.168V367.418C383.682 367.418 385.182 367.77 386.077 368.67C386.971 369.571 387.324 371.083 387.324 373.6H387.574ZM381.19 367.168V366.918H366.934V367.168V367.418H381.19V367.168ZM366.934 367.168V366.918C364.434 366.918 362.742 367.262 361.693 368.318C360.643 369.373 360.3 371.077 360.3 373.6H360.55H360.8C360.8 371.083 361.152 369.571 362.047 368.67C362.941 367.77 364.442 367.418 366.934 367.418V367.168ZM421.254 367.216V366.966H421.004V367.216H421.254ZM413.958 367.216H414.208V366.966H413.958V367.216ZM398.838 360.4V360.65H436.374V360.4V360.15H398.838V360.4ZM436.374 360.4V360.65C436.7 360.65 436.903 360.726 437.025 360.841C437.144 360.952 437.228 361.139 437.228 361.456H437.478H437.728C437.728 361.053 437.62 360.712 437.367 360.475C437.117 360.242 436.769 360.15 436.374 360.15V360.4ZM437.478 361.456H437.228V366.16H437.478H437.728V361.456H437.478ZM437.478 366.16H437.228C437.228 366.477 437.144 366.664 437.025 366.775C436.903 366.89 436.7 366.966 436.374 366.966V367.216V367.466C436.769 367.466 437.117 367.374 437.367 367.141C437.62 366.904 437.728 366.563 437.728 366.16H437.478ZM436.374 367.216V366.966H421.254V367.216V367.466H436.374V367.216ZM421.254 367.216H421.004V392.944H421.254H421.504V367.216H421.254ZM421.254 392.944H421.004C421.004 393.279 420.936 393.466 420.837 393.572C420.742 393.674 420.572 393.75 420.246 393.75V394V394.25C420.64 394.25 420.974 394.158 421.203 393.912C421.428 393.67 421.504 393.329 421.504 392.944H421.254ZM420.246 394V393.75H415.014V394V394.25H420.246V394ZM415.014 394V393.75C414.717 393.75 414.525 393.676 414.408 393.562C414.292 393.45 414.208 393.261 414.208 392.944H413.958H413.708C413.708 393.347 413.816 393.686 414.06 393.922C414.303 394.156 414.64 394.25 415.014 394.25V394ZM413.958 392.944H414.208V367.216H413.958H413.708V392.944H413.958ZM413.958 367.216V366.966H398.838V367.216V367.466H413.958V367.216ZM398.838 367.216V366.966C398.541 366.966 398.349 366.892 398.232 366.778C398.116 366.666 398.032 366.477 398.032 366.16H397.782H397.532C397.532 366.563 397.64 366.902 397.884 367.138C398.127 367.372 398.464 367.466 398.838 367.466V367.216ZM397.782 366.16H398.032V361.456H397.782H397.532V366.16H397.782ZM397.782 361.456H398.032C398.032 361.139 398.116 360.95 398.232 360.838C398.349 360.724 398.541 360.65 398.838 360.65V360.4V360.15C398.464 360.15 398.127 360.244 397.884 360.478C397.64 360.714 397.532 361.053 397.532 361.456H397.782ZM442.706 360.4V360.65H447.89V360.4V360.15H442.706V360.4ZM447.89 360.4V360.65C448.216 360.65 448.403 360.726 448.512 360.835C448.62 360.943 448.696 361.13 448.696 361.456H448.946H449.196C449.196 361.062 449.105 360.721 448.865 360.481C448.626 360.242 448.285 360.15 447.89 360.15V360.4ZM448.946 361.456H448.696V392.944H448.946H449.196V361.456H448.946ZM448.946 392.944H448.696C448.696 393.27 448.62 393.457 448.512 393.565C448.403 393.674 448.216 393.75 447.89 393.75V394V394.25C448.285 394.25 448.626 394.158 448.865 393.919C449.105 393.679 449.196 393.338 449.196 392.944H448.946ZM447.89 394V393.75H442.706V394V394.25H447.89V394ZM442.706 394V393.75C442.381 393.75 442.194 393.674 442.085 393.565C441.977 393.457 441.9 393.27 441.9 392.944H441.65H441.4C441.4 393.338 441.492 393.679 441.732 393.919C441.971 394.158 442.312 394.25 442.706 394.25V394ZM441.65 392.944H441.9V361.456H441.65H441.4V392.944H441.65ZM441.65 361.456H441.9C441.9 361.13 441.977 360.943 442.085 360.835C442.194 360.726 442.381 360.65 442.706 360.65V360.4V360.15C442.312 360.15 441.971 360.242 441.732 360.481C441.492 360.721 441.4 361.062 441.4 361.456H441.65ZM468.291 360.4V360.65H483.075V360.4V360.15H468.291V360.4ZM483.075 360.4V360.65C487.929 360.65 491.207 361.513 493.277 363.462C495.344 365.407 496.265 368.488 496.265 373.072H496.515H496.765C496.765 368.44 495.837 365.185 493.62 363.098C491.407 361.015 487.965 360.15 483.075 360.15V360.4ZM496.515 373.072H496.265V381.328H496.515H496.765V373.072H496.515ZM496.515 381.328H496.265C496.265 385.912 495.344 388.993 493.277 390.938C491.207 392.887 487.929 393.75 483.075 393.75V394V394.25C487.965 394.25 491.407 393.385 493.62 391.302C495.837 389.215 496.765 385.96 496.765 381.328H496.515ZM483.075 394V393.75H468.291V394V394.25H483.075V394ZM468.291 394V393.75C463.438 393.75 460.159 392.875 458.088 390.92C456.021 388.969 455.101 385.887 455.101 381.328H454.851H454.601C454.601 385.937 455.528 389.191 457.745 391.284C459.958 393.373 463.4 394.25 468.291 394.25V394ZM454.851 381.328H455.101V373.072H454.851H454.601V381.328H454.851ZM454.851 373.072H455.101C455.101 368.513 456.021 365.431 458.088 363.48C460.159 361.525 463.438 360.65 468.291 360.65V360.4V360.15C463.4 360.15 459.958 361.027 457.745 363.116C455.528 365.209 454.601 368.463 454.601 373.072H454.851ZM462.147 373.6H461.897V380.8H462.147H462.397V373.6H462.147ZM462.147 380.8H461.897C461.897 383.323 462.24 385.027 463.289 386.082C464.339 387.138 466.031 387.482 468.531 387.482V387.232V386.982C466.039 386.982 464.538 386.63 463.644 385.73C462.749 384.829 462.397 383.317 462.397 380.8H462.147ZM468.531 387.232V387.482H482.787V387.232V386.982H468.531V387.232ZM482.787 387.232V387.482C485.287 387.482 486.978 387.138 488.028 386.082C489.077 385.027 489.421 383.323 489.421 380.8H489.171H488.921C488.921 383.317 488.568 384.829 487.673 385.73C486.779 386.63 485.279 386.982 482.787 386.982V387.232ZM489.171 380.8H489.421V373.6H489.171H488.921V380.8H489.171ZM489.171 373.6H489.421C489.421 371.077 489.077 369.373 488.028 368.318C486.978 367.262 485.287 366.918 482.787 366.918V367.168V367.418C485.279 367.418 486.779 367.77 487.673 368.67C488.568 369.571 488.921 371.083 488.921 373.6H489.171ZM482.787 367.168V366.918H468.531V367.168V367.418H482.787V367.168ZM468.531 367.168V366.918C466.031 366.918 464.339 367.262 463.289 368.318C462.24 369.373 461.897 371.077 461.897 373.6H462.147H462.397C462.397 371.083 462.749 369.571 463.644 368.67C464.538 367.77 466.039 367.418 468.531 367.418V367.168ZM516.589 363.232L516.386 363.379L516.389 363.383L516.589 363.232ZM534.253 386.656L534.467 386.527L534.46 386.516L534.452 386.505L534.253 386.656ZM528.828 391.168L529.033 391.024L529.028 391.017L528.828 391.168ZM511.117 367.744L511.316 367.593L511.312 367.588L511.117 367.744ZM506.701 360.4V360.65H511.02V360.4V360.15H506.701V360.4ZM511.02 360.4V360.65C512.739 360.65 513.691 360.831 514.399 361.24C515.113 361.653 515.611 362.313 516.386 363.379L516.589 363.232L516.791 363.085C516.03 362.039 515.472 361.283 514.65 360.808C513.822 360.329 512.758 360.15 511.02 360.15V360.4ZM516.589 363.232L516.389 363.383L534.053 386.807L534.253 386.656L534.452 386.505L516.788 363.081L516.589 363.232ZM534.253 386.656L534.038 386.785C534.129 386.935 534.243 387.056 534.394 387.135C534.542 387.213 534.705 387.242 534.876 387.242V386.992V386.742C534.76 386.742 534.683 386.723 534.627 386.693C534.574 386.664 534.52 386.617 534.467 386.527L534.253 386.656ZM534.876 386.992V387.242H535.309V386.992V386.742H534.876V386.992ZM535.309 386.992V387.242C535.48 387.242 535.655 387.188 535.781 387.039C535.901 386.898 535.942 386.71 535.942 386.512H535.692H535.442C535.442 386.65 535.412 386.702 535.4 386.717C535.394 386.723 535.377 386.742 535.309 386.742V386.992ZM535.692 386.512H535.942V361.456H535.692H535.442V386.512H535.692ZM535.692 361.456H535.942C535.942 361.13 536.019 360.943 536.127 360.835C536.236 360.726 536.423 360.65 536.749 360.65V360.4V360.15C536.354 360.15 536.013 360.242 535.774 360.481C535.534 360.721 535.442 361.062 535.442 361.456H535.692ZM536.749 360.4V360.65H541.884V360.4V360.15H536.749V360.4ZM541.884 360.4V360.65C542.21 360.65 542.397 360.726 542.506 360.835C542.614 360.943 542.69 361.13 542.69 361.456H542.94H543.19C543.19 361.062 543.099 360.721 542.859 360.481C542.62 360.242 542.279 360.15 541.884 360.15V360.4ZM542.94 361.456H542.69V389.008H542.94H543.19V361.456H542.94ZM542.94 389.008H542.69C542.69 390.888 542.367 392.055 541.729 392.758C541.099 393.453 540.108 393.75 538.62 393.75V394V394.25C540.157 394.25 541.326 393.947 542.1 393.094C542.866 392.249 543.19 390.92 543.19 389.008H542.94ZM538.62 394V393.75H534.348V394V394.25H538.62V394ZM534.348 394V393.75C532.63 393.75 531.678 393.569 530.976 393.16C530.27 392.748 529.784 392.09 529.033 391.024L528.828 391.168L528.624 391.312C529.361 392.358 529.907 393.116 530.725 393.592C531.547 394.071 532.611 394.25 534.348 394.25V394ZM528.828 391.168L529.028 391.017L511.316 367.593L511.117 367.744L510.917 367.895L528.629 391.319L528.828 391.168ZM511.117 367.744L511.312 367.588C511.209 367.46 511.101 367.346 510.963 367.268C510.82 367.187 510.666 367.158 510.492 367.158V367.408V367.658C510.607 367.658 510.669 367.677 510.718 367.704C510.772 367.734 510.832 367.788 510.921 367.9L511.117 367.744ZM510.492 367.408V367.158H510.061V367.408V367.658H510.492V367.408ZM510.061 367.408V367.158C509.878 367.158 509.689 367.205 509.562 367.37C509.449 367.517 509.426 367.709 509.426 367.888H509.676H509.926C509.926 367.731 509.952 367.683 509.959 367.674C509.959 367.673 509.96 367.673 509.96 367.673C509.96 367.673 509.962 367.672 509.968 367.67C509.98 367.665 510.008 367.658 510.061 367.658V367.408ZM509.676 367.888H509.426V392.944H509.676H509.926V367.888H509.676ZM509.676 392.944H509.426C509.426 393.261 509.343 393.45 509.227 393.562C509.109 393.676 508.918 393.75 508.62 393.75V394V394.25C508.995 394.25 509.332 394.156 509.574 393.922C509.818 393.686 509.926 393.347 509.926 392.944H509.676ZM508.62 394V393.75H503.484V394V394.25H508.62V394ZM503.484 394V393.75C503.159 393.75 502.972 393.674 502.863 393.565C502.755 393.457 502.678 393.27 502.678 392.944H502.428H502.178C502.178 393.338 502.27 393.679 502.51 393.919C502.749 394.158 503.09 394.25 503.484 394.25V394ZM502.428 392.944H502.678V365.392H502.428H502.178V392.944H502.428ZM502.428 365.392H502.678C502.678 363.51 502.991 362.343 503.617 361.64C504.235 360.947 505.213 360.65 506.701 360.65V360.4V360.15C505.164 360.15 504.006 360.453 503.244 361.308C502.49 362.153 502.178 363.482 502.178 365.392H502.428ZM586.241 361.024L586.001 361.096L586.002 361.097L586.241 361.024ZM594.161 386.848L593.922 386.921L593.925 386.931L593.928 386.941L594.161 386.848ZM595.169 386.848L595.401 386.941L595.404 386.933L595.407 386.925L595.169 386.848ZM602.801 363.184L603.039 363.261L603.04 363.256L602.801 363.184ZM615.233 363.184L614.993 363.256L614.995 363.262L615.233 363.184ZM623.009 386.848L622.771 386.926L622.774 386.934L622.776 386.941L623.009 386.848ZM624.065 386.848L624.297 386.941L624.301 386.931L624.304 386.92L624.065 386.848ZM631.841 361.024L632.08 361.096L632.08 361.096L631.841 361.024ZM639.281 361.504L639.519 361.579L639.52 361.578L639.281 361.504ZM630.257 390.352L630.018 390.277L630.017 390.279L630.257 390.352ZM616.913 390.352L617.152 390.279L617.15 390.275L616.913 390.352ZM609.521 367.552L609.275 367.601L609.278 367.615L609.283 367.629L609.521 367.552ZM608.561 367.552L608.798 367.629L608.803 367.615L608.806 367.601L608.561 367.552ZM601.169 390.352L600.931 390.275L600.929 390.28L601.169 390.352ZM587.825 390.352L588.064 390.281L588.063 390.278L587.825 390.352ZM578.897 361.504L578.656 361.573L578.658 361.578L578.897 361.504ZM579.281 360.4V360.65H585.569V360.4V360.15H579.281V360.4ZM585.569 360.4V360.65C585.731 360.65 585.787 360.68 585.823 360.714C585.873 360.761 585.93 360.86 586.001 361.096L586.241 361.024L586.48 360.952C586.407 360.708 586.32 360.495 586.166 360.35C585.998 360.192 585.791 360.15 585.569 360.15V360.4ZM586.241 361.024L586.002 361.097L593.922 386.921L594.161 386.848L594.4 386.775L586.48 360.951L586.241 361.024ZM594.161 386.848L593.928 386.941C593.98 387.07 594.046 387.198 594.149 387.292C594.265 387.396 594.401 387.434 594.545 387.434V387.184V386.934C594.517 386.934 594.503 386.931 594.498 386.929C594.493 386.927 594.489 386.925 594.484 386.92C594.468 386.906 594.437 386.866 594.393 386.755L594.161 386.848ZM594.545 387.184V387.434H594.785V387.184V386.934H594.545V387.184ZM594.785 387.184V387.434C594.928 387.434 595.064 387.396 595.18 387.292C595.284 387.198 595.349 387.07 595.401 386.941L595.169 386.848L594.936 386.755C594.892 386.866 594.862 386.906 594.845 386.92C594.84 386.925 594.836 386.927 594.832 386.929C594.826 386.931 594.812 386.934 594.785 386.934V387.184ZM595.169 386.848L595.407 386.925L603.039 363.261L602.801 363.184L602.563 363.107L594.931 386.771L595.169 386.848ZM602.801 363.184L603.04 363.256C603.343 362.254 603.752 361.613 604.277 361.218C604.801 360.824 605.472 360.65 606.353 360.65V360.4V360.15C605.409 360.15 604.617 360.336 603.976 360.818C603.337 361.299 602.882 362.05 602.561 363.112L602.801 363.184ZM606.353 360.4V360.65H611.441V360.4V360.15H606.353V360.4ZM611.441 360.4V360.65C612.472 360.65 613.203 360.827 613.748 361.221C614.292 361.614 614.689 362.251 614.993 363.256L615.233 363.184L615.472 363.112C615.152 362.053 614.709 361.298 614.041 360.815C613.374 360.333 612.521 360.15 611.441 360.15V360.4ZM615.233 363.184L614.995 363.262L622.771 386.926L623.009 386.848L623.246 386.77L615.47 363.106L615.233 363.184ZM623.009 386.848L622.776 386.941C622.828 387.07 622.895 387.204 623.012 387.299C623.139 387.403 623.287 387.434 623.441 387.434V387.184V386.934C623.354 386.934 623.335 386.917 623.329 386.913C623.314 386.9 623.285 386.866 623.241 386.755L623.009 386.848ZM623.441 387.184V387.434H623.633V387.184V386.934H623.441V387.184ZM623.633 387.184V387.434C623.786 387.434 623.935 387.403 624.061 387.299C624.178 387.204 624.245 387.07 624.297 386.941L624.065 386.848L623.832 386.755C623.788 386.866 623.759 386.9 623.744 386.913C623.739 386.917 623.719 386.934 623.633 386.934V387.184ZM624.065 386.848L624.304 386.92L632.08 361.096L631.841 361.024L631.601 360.952L623.825 386.776L624.065 386.848ZM631.841 361.024L632.08 361.096C632.144 360.883 632.219 360.78 632.285 360.727C632.347 360.678 632.429 360.65 632.561 360.65V360.4V360.15C632.356 360.15 632.15 360.194 631.972 360.337C631.798 360.476 631.681 360.685 631.601 360.952L631.841 361.024ZM632.561 360.4V360.65H638.897V360.4V360.15H632.561V360.4ZM638.897 360.4V360.65C638.956 360.65 638.991 360.666 639.014 360.683C639.038 360.701 639.065 360.735 639.085 360.797C639.129 360.927 639.129 361.145 639.042 361.43L639.281 361.504L639.52 361.578C639.624 361.239 639.648 360.905 639.56 360.639C639.514 360.503 639.437 360.378 639.318 360.287C639.198 360.194 639.053 360.15 638.897 360.15V360.4ZM639.281 361.504L639.042 361.429L630.018 390.277L630.257 390.352L630.495 390.427L639.519 361.579L639.281 361.504ZM630.257 390.352L630.017 390.279C629.588 391.685 629.148 392.546 628.614 393.058C628.093 393.556 627.457 393.75 626.561 393.75V394V394.25C627.536 394.25 628.316 394.036 628.96 393.418C629.59 392.814 630.061 391.851 630.496 390.425L630.257 390.352ZM626.561 394V393.75H620.609V394V394.25H626.561V394ZM620.609 394V393.75C619.712 393.75 619.076 393.556 618.556 393.058C618.022 392.546 617.581 391.685 617.152 390.279L616.913 390.352L616.673 390.425C617.108 391.851 617.58 392.814 618.21 393.418C618.853 394.036 619.633 394.25 620.609 394.25V394ZM616.913 390.352L617.15 390.275L609.758 367.475L609.521 367.552L609.283 367.629L616.675 390.429L616.913 390.352ZM609.521 367.552L609.766 367.503C609.738 367.365 609.689 367.223 609.583 367.117C609.469 367.002 609.324 366.966 609.185 366.966V367.216V367.466C609.212 367.466 609.225 367.47 609.229 367.471C609.231 367.472 609.231 367.472 609.231 367.471C609.23 367.471 609.23 367.471 609.23 367.471C609.232 367.473 609.255 367.499 609.275 367.601L609.521 367.552ZM609.185 367.216V366.966H608.945V367.216V367.466H609.185V367.216ZM608.945 367.216V366.966C608.807 366.966 608.662 367.001 608.54 367.101C608.418 367.2 608.348 367.342 608.315 367.503L608.561 367.552L608.806 367.601C608.822 367.522 608.847 367.496 608.857 367.487C608.867 367.479 608.89 367.466 608.945 367.466V367.216ZM608.561 367.552L608.323 367.475L600.931 390.275L601.169 390.352L601.406 390.429L608.798 367.629L608.561 367.552ZM601.169 390.352L600.929 390.28C600.499 391.713 600.07 392.571 599.549 393.076C599.042 393.567 598.42 393.75 597.521 393.75V394V394.25C598.493 394.25 599.263 394.049 599.897 393.436C600.515 392.837 600.974 391.871 601.408 390.424L601.169 390.352ZM597.521 394V393.75H591.809V394V394.25H597.521V394ZM591.809 394V393.75C590.753 393.75 590.047 393.573 589.496 393.087C588.934 392.59 588.494 391.737 588.064 390.281L587.825 390.352L587.585 390.423C588.019 391.895 588.491 392.866 589.165 393.461C589.85 394.067 590.704 394.25 591.809 394.25V394ZM587.825 390.352L588.063 390.278L579.135 361.43L578.897 361.504L578.658 361.578L587.586 390.426L587.825 390.352ZM578.897 361.504L579.137 361.435C579.042 361.103 579.026 360.887 579.059 360.768C579.073 360.718 579.092 360.698 579.11 360.685C579.133 360.671 579.181 360.65 579.281 360.65V360.4V360.15C579.116 360.15 578.961 360.183 578.831 360.271C578.698 360.36 578.618 360.49 578.578 360.632C578.504 360.897 578.559 361.233 578.656 361.573L578.897 361.504ZM655.556 360.4V360.65H670.34V360.4V360.15H655.556V360.4ZM670.34 360.4V360.65C675.194 360.65 678.472 361.513 680.543 363.462C682.61 365.407 683.53 368.488 683.53 373.072H683.78H684.03C684.03 368.44 683.103 365.185 680.886 363.098C678.672 361.015 675.231 360.15 670.34 360.15V360.4ZM683.78 373.072H683.53V381.328H683.78H684.03V373.072H683.78ZM683.78 381.328H683.53C683.53 385.912 682.61 388.993 680.543 390.938C678.472 392.887 675.194 393.75 670.34 393.75V394V394.25C675.231 394.25 678.672 393.385 680.886 391.302C683.103 389.215 684.03 385.96 684.03 381.328H683.78ZM670.34 394V393.75H655.556V394V394.25H670.34V394ZM655.556 394V393.75C650.703 393.75 647.425 392.875 645.354 390.92C643.287 388.969 642.366 385.887 642.366 381.328H642.116H641.866C641.866 385.937 642.794 389.191 645.011 391.284C647.224 393.373 650.665 394.25 655.556 394.25V394ZM642.116 381.328H642.366V373.072H642.116H641.866V381.328H642.116ZM642.116 373.072H642.366C642.366 368.513 643.287 365.431 645.354 363.48C647.425 361.525 650.703 360.65 655.556 360.65V360.4V360.15C650.665 360.15 647.224 361.027 645.011 363.116C642.794 365.209 641.866 368.463 641.866 373.072H642.116ZM649.412 373.6H649.162V380.8H649.412H649.662V373.6H649.412ZM649.412 380.8H649.162C649.162 383.323 649.506 385.027 650.555 386.082C651.605 387.138 653.297 387.482 655.796 387.482V387.232V386.982C653.304 386.982 651.804 386.63 650.91 385.73C650.015 384.829 649.662 383.317 649.662 380.8H649.412ZM655.796 387.232V387.482H670.052V387.232V386.982H655.796V387.232ZM670.052 387.232V387.482C672.552 387.482 674.244 387.138 675.294 386.082C676.343 385.027 676.686 383.323 676.686 380.8H676.436H676.186C676.186 383.317 675.834 384.829 674.939 385.73C674.045 386.63 672.545 386.982 670.052 386.982V387.232ZM676.436 380.8H676.686V373.6H676.436H676.186V380.8H676.436ZM676.436 373.6H676.686C676.686 371.077 676.343 369.373 675.294 368.318C674.244 367.262 672.552 366.918 670.052 366.918V367.168V367.418C672.545 367.418 674.045 367.77 674.939 368.67C675.834 369.571 676.186 371.083 676.186 373.6H676.436ZM670.052 367.168V366.918H655.796V367.168V367.418H670.052V367.168ZM655.796 367.168V366.918C653.297 366.918 651.605 367.262 650.555 368.318C649.506 369.373 649.162 371.077 649.162 373.6H649.412H649.662C649.662 371.083 650.015 369.571 650.91 368.67C651.804 367.77 653.304 367.418 655.796 367.418V367.168ZM720.222 382.816L720.173 382.571L719.769 382.652L720.028 382.973L720.222 382.816ZM728.238 392.752L728.433 392.596L728.433 392.595L728.238 392.752ZM719.838 393.376L720.035 393.223L720.035 393.222L719.838 393.376ZM712.206 383.632L712.403 383.478L712.328 383.382H712.206V383.632ZM696.99 383.632V383.382H696.74V383.632H696.99ZM696.99 377.296H696.74V377.546H696.99V377.296ZM691.134 360.4V360.65H716.862V360.4V360.15H691.134V360.4ZM716.862 360.4V360.65C720.406 360.65 722.91 361.447 724.53 363.016C726.149 364.582 726.932 366.964 726.932 370.24H727.182H727.432C727.432 366.892 726.632 364.354 724.878 362.656C723.126 360.961 720.47 360.15 716.862 360.15V360.4ZM727.182 370.24H726.932V373.024H727.182H727.432V370.24H727.182ZM727.182 373.024H726.932C726.932 375.778 726.386 377.929 725.28 379.504C724.177 381.074 722.499 382.101 720.173 382.571L720.222 382.816L720.272 383.061C722.697 382.571 724.499 381.486 725.689 379.792C726.875 378.103 727.432 375.838 727.432 373.024H727.182ZM720.222 382.816L720.028 382.973L728.044 392.909L728.238 392.752L728.433 392.595L720.417 382.659L720.222 382.816ZM728.238 392.752L728.043 392.908C728.178 393.077 728.199 393.292 728.128 393.458C728.062 393.612 727.904 393.75 727.614 393.75V394V394.25C728.092 394.25 728.438 394.004 728.588 393.654C728.733 393.316 728.682 392.907 728.433 392.596L728.238 392.752ZM727.614 394V393.75H721.182V394V394.25H727.614V394ZM721.182 394V393.75C720.816 393.75 720.61 393.704 720.463 393.628C720.316 393.552 720.199 393.433 720.035 393.223L719.838 393.376L719.641 393.529C719.813 393.751 719.985 393.944 720.234 394.072C720.482 394.2 720.78 394.25 721.182 394.25V394ZM719.838 393.376L720.035 393.222L712.403 383.478L712.206 383.632L712.009 383.786L719.641 393.53L719.838 393.376ZM712.206 383.632V383.382H696.99V383.632V383.882H712.206V383.632ZM696.99 383.632H696.74V392.944H696.99H697.24V383.632H696.99ZM696.99 392.944H696.74C696.74 393.27 696.664 393.457 696.555 393.565C696.447 393.674 696.26 393.75 695.934 393.75V394V394.25C696.328 394.25 696.669 394.158 696.909 393.919C697.148 393.679 697.24 393.338 697.24 392.944H696.99ZM695.934 394V393.75H690.75V394V394.25H695.934V394ZM690.75 394V393.75C690.424 393.75 690.237 393.674 690.129 393.565C690.02 393.457 689.944 393.27 689.944 392.944H689.694H689.444C689.444 393.338 689.536 393.679 689.775 393.919C690.015 394.158 690.356 394.25 690.75 394.25V394ZM689.694 392.944H689.944V361.84H689.694H689.444V392.944H689.694ZM689.694 361.84H689.944C689.944 361.399 690.054 361.113 690.231 360.937C690.407 360.76 690.693 360.65 691.134 360.65V360.4V360.15C690.616 360.15 690.181 360.28 689.877 360.583C689.574 360.887 689.444 361.321 689.444 361.84H689.694ZM696.99 377.296V377.546H715.374V377.296V377.046H696.99V377.296ZM715.374 377.296V377.546C717.024 377.546 718.22 377.257 718.999 376.544C719.784 375.826 720.088 374.731 720.088 373.264H719.838H719.588C719.588 374.677 719.293 375.598 718.661 376.176C718.024 376.759 716.988 377.046 715.374 377.046V377.296ZM719.838 373.264H720.088V371.248H719.838H719.588V373.264H719.838ZM719.838 371.248H720.088C720.088 369.756 719.771 368.639 718.983 367.903C718.199 367.172 717.003 366.87 715.374 366.87V367.12V367.37C716.961 367.37 717.998 367.668 718.642 368.269C719.281 368.865 719.588 369.812 719.588 371.248H719.838ZM715.374 367.12V366.87H697.614V367.12V367.37H715.374V367.12ZM697.614 367.12V366.87C697.381 366.87 697.152 366.907 696.981 367.047C696.799 367.197 696.74 367.417 696.74 367.648H696.99H697.24C697.24 367.495 697.278 367.451 697.299 367.433C697.332 367.405 697.415 367.37 697.614 367.37V367.12ZM696.99 367.648H696.74V377.296H696.99H697.24V367.648H696.99ZM740.293 373.984H740.043V374.234H740.293V373.984ZM752.293 372.064L752.492 372.216L752.493 372.215L752.293 372.064ZM760.645 361.024L760.845 361.175L760.85 361.167L760.645 361.024ZM768.613 361.552L768.418 361.396L768.415 361.399L768.613 361.552ZM759.301 373.6L759.103 373.447L759.102 373.449L759.301 373.6ZM756.421 376.816L756.26 376.625L755.998 376.845L756.288 377.028L756.421 376.816ZM760.069 380.272L759.872 380.426L759.873 380.427L760.069 380.272ZM769.909 392.752L769.713 392.907L769.722 392.918L769.732 392.929L769.909 392.752ZM761.797 393.376L762.002 393.232L761.994 393.222L761.797 393.376ZM752.917 382L752.719 382.152L752.72 382.154L752.917 382ZM740.293 380.032V379.782H740.043V380.032H740.293ZM734.053 360.4V360.65H739.237V360.4V360.15H734.053V360.4ZM739.237 360.4V360.65C739.563 360.65 739.75 360.726 739.858 360.835C739.967 360.943 740.043 361.13 740.043 361.456H740.293H740.543C740.543 361.062 740.452 360.721 740.212 360.481C739.973 360.242 739.631 360.15 739.237 360.15V360.4ZM740.293 361.456H740.043V373.984H740.293H740.543V361.456H740.293ZM740.293 373.984V374.234H746.965V373.984V373.734H740.293V373.984ZM746.965 373.984V374.234C748.594 374.234 749.655 374.164 750.47 373.871C751.303 373.572 751.855 373.048 752.492 372.216L752.293 372.064L752.095 371.912C751.483 372.712 751.003 373.148 750.301 373.401C749.579 373.66 748.601 373.734 746.965 373.734V373.984ZM752.293 372.064L752.493 372.215L760.845 361.175L760.645 361.024L760.446 360.873L752.094 371.913L752.293 372.064ZM760.645 361.024L760.85 361.167C761.01 360.938 761.124 360.826 761.268 360.758C761.419 360.687 761.637 360.65 762.037 360.65V360.4V360.15C761.622 360.15 761.311 360.185 761.055 360.306C760.791 360.43 760.616 360.63 760.44 360.881L760.645 361.024ZM762.037 360.4V360.65H768.037V360.4V360.15H762.037V360.4ZM768.037 360.4V360.65C768.313 360.65 768.455 360.773 768.511 360.898C768.571 361.031 768.558 361.221 768.418 361.396L768.613 361.552L768.808 361.708C769.052 361.403 769.112 361.017 768.967 360.694C768.82 360.363 768.481 360.15 768.037 360.15V360.4ZM768.613 361.552L768.415 361.399L759.103 373.447L759.301 373.6L759.499 373.753L768.811 361.705L768.613 361.552ZM759.301 373.6L759.102 373.449C758.049 374.837 757.151 375.875 756.26 376.625L756.421 376.816L756.582 377.007C757.516 376.221 758.441 375.147 759.5 373.751L759.301 373.6ZM756.421 376.816L756.288 377.028C757.553 377.824 758.684 378.906 759.872 380.426L760.069 380.272L760.266 380.118C759.054 378.566 757.882 377.44 756.554 376.604L756.421 376.816ZM760.069 380.272L759.873 380.427L769.713 392.907L769.909 392.752L770.106 392.597L760.266 380.117L760.069 380.272ZM769.909 392.752L769.732 392.929C769.844 393.041 769.886 393.244 769.814 393.43C769.749 393.598 769.59 393.75 769.285 393.75V394V394.25C769.797 394.25 770.141 393.97 770.28 393.61C770.413 393.268 770.358 392.847 770.086 392.575L769.909 392.752ZM769.285 394V393.75H763.189V394V394.25H769.285V394ZM763.189 394V393.75C762.815 393.75 762.595 393.714 762.435 393.641C762.282 393.571 762.158 393.455 762.002 393.233L761.797 393.376L761.592 393.519C761.773 393.777 761.96 393.973 762.227 394.095C762.487 394.214 762.795 394.25 763.189 394.25V394ZM761.797 393.376L761.994 393.222L753.114 381.846L752.917 382L752.72 382.154L761.6 393.53L761.797 393.376ZM752.917 382L753.116 381.848C752.477 381.012 751.889 380.48 751.041 380.169C750.209 379.864 749.149 379.782 747.589 379.782V380.032V380.282C749.149 380.282 750.129 380.368 750.869 380.639C751.593 380.904 752.11 381.356 752.719 382.152L752.917 382ZM747.589 380.032V379.782H740.293V380.032V380.282H747.589V380.032ZM740.293 380.032H740.043V392.944H740.293H740.543V380.032H740.293ZM740.293 392.944H740.043C740.043 393.27 739.967 393.457 739.858 393.565C739.75 393.674 739.563 393.75 739.237 393.75V394V394.25C739.631 394.25 739.973 394.158 740.212 393.919C740.452 393.679 740.543 393.338 740.543 392.944H740.293ZM739.237 394V393.75H734.053V394V394.25H739.237V394ZM734.053 394V393.75C733.727 393.75 733.54 393.674 733.432 393.565C733.324 393.457 733.247 393.27 733.247 392.944H732.997H732.747C732.747 393.338 732.839 393.679 733.078 393.919C733.318 394.158 733.659 394.25 734.053 394.25V394ZM732.997 392.944H733.247V361.456H732.997H732.747V392.944H732.997ZM732.997 361.456H733.247C733.247 361.13 733.324 360.943 733.432 360.835C733.54 360.726 733.727 360.65 734.053 360.65V360.4V360.15C733.659 360.15 733.318 360.242 733.078 360.481C732.839 360.721 732.747 361.062 732.747 361.456H732.997ZM781.688 360.4V360.65H807.128V360.4V360.15H781.688V360.4ZM807.128 360.4V360.65C807.426 360.65 807.617 360.724 807.734 360.838C807.85 360.95 807.934 361.139 807.934 361.456H808.184H808.434C808.434 361.053 808.326 360.714 808.082 360.478C807.839 360.244 807.503 360.15 807.128 360.15V360.4ZM808.184 361.456H807.934V366.112H808.184H808.434V361.456H808.184ZM808.184 366.112H807.934C807.934 366.401 807.852 366.594 807.731 366.715C807.61 366.836 807.417 366.918 807.128 366.918V367.168V367.418C807.511 367.418 807.846 367.308 808.085 367.069C808.324 366.83 808.434 366.495 808.434 366.112H808.184ZM807.128 367.168V366.918H783.08V367.168V367.418H807.128V367.168ZM783.08 367.168V366.918C782.181 366.918 781.467 367.13 780.982 367.622C780.497 368.114 780.286 368.839 780.286 369.76H780.536H780.786C780.786 368.905 780.983 368.334 781.338 367.974C781.693 367.614 782.251 367.418 783.08 367.418V367.168ZM780.536 369.76H780.286V371.392H780.536H780.786V369.76H780.536ZM780.536 371.392H780.286C780.286 372.287 780.484 372.981 780.969 373.445C781.452 373.906 782.166 374.09 783.08 374.09V373.84V373.59C782.218 373.59 781.66 373.414 781.315 373.083C780.972 372.755 780.786 372.225 780.786 371.392H780.536ZM783.08 373.84V374.09H801.032V373.84V373.59H783.08V373.84ZM801.032 373.84V374.09C803.673 374.09 805.702 374.844 807.07 376.224C808.44 377.605 809.182 379.646 809.182 382.288H809.432H809.682C809.682 379.554 808.912 377.371 807.426 375.872C805.938 374.372 803.767 373.59 801.032 373.59V373.84ZM809.432 382.288H809.182V386.176H809.432H809.682V382.288H809.432ZM809.432 386.176H809.182C809.182 388.597 808.455 390.48 807.083 391.759C805.71 393.041 803.655 393.75 800.936 393.75V394V394.25C803.737 394.25 805.93 393.519 807.425 392.125C808.921 390.728 809.682 388.699 809.682 386.176H809.432ZM800.936 394V393.75H774.344V394V394.25H800.936V394ZM774.344 394V393.75C774.018 393.75 773.831 393.674 773.723 393.565C773.614 393.457 773.538 393.27 773.538 392.944H773.288H773.038C773.038 393.338 773.13 393.679 773.369 393.919C773.609 394.158 773.95 394.25 774.344 394.25V394ZM773.288 392.944H773.538V388.288H773.288H773.038V392.944H773.288ZM773.288 388.288H773.538C773.538 387.99 773.612 387.799 773.726 387.682C773.838 387.566 774.027 387.482 774.344 387.482V387.232V386.982C773.941 386.982 773.602 387.09 773.366 387.334C773.132 387.577 773.038 387.914 773.038 388.288H773.288ZM774.344 387.232V387.482H799.544V387.232V386.982H774.344V387.232ZM799.544 387.232V387.482C800.421 387.482 801.132 387.269 801.623 386.779C802.113 386.288 802.338 385.565 802.338 384.64H802.088H801.838C801.838 385.491 801.631 386.064 801.269 386.425C800.908 386.787 800.347 386.982 799.544 386.982V387.232ZM802.088 384.64H802.338V382.672H802.088H801.838V384.64H802.088ZM802.088 382.672H802.338C802.338 381.781 802.154 381.087 801.681 380.622C801.21 380.158 800.506 379.974 799.592 379.974V380.224V380.474C800.454 380.474 800.998 380.65 801.331 380.978C801.662 381.305 801.838 381.835 801.838 382.672H802.088ZM799.592 380.224V379.974H781.592V380.224V380.474H799.592V380.224ZM781.592 380.224V379.974C778.951 379.974 776.935 379.22 775.578 377.841C774.221 376.46 773.49 374.419 773.49 371.776H773.24H772.99C772.99 374.509 773.747 376.692 775.222 378.191C776.697 379.692 778.857 380.474 781.592 380.474V380.224ZM773.24 371.776H773.49V368.224H773.24H772.99V371.776H773.24ZM773.24 368.224H773.49C773.49 365.802 774.206 363.919 775.565 362.64C776.927 361.359 778.969 360.65 781.688 360.65V360.4V360.15C778.887 360.15 776.705 360.881 775.223 362.276C773.738 363.673 772.99 365.702 772.99 368.224H773.24Z" fill="#FC3D21" mask="url(#path-3-outside-1_0_1)"/>
</g>
<defs>
<filter id="filter0_n_0_1" x="296.21" y="360.15" width="513.472" height="34.1" filterUnits="userSpaceOnUse" color-interpolation-filters="sRGB">
<feFlood flood-opacity="0" result="BackgroundImageFix"/>
<feBlend mode="normal" in="SourceGraphic" in2="BackgroundImageFix" result="shape"/>
<feTurbulence type="fractalNoise" baseFrequency="2 2" stitchTiles="stitch" numOctaves="3" result="noise" seed="6249" />
<feColorMatrix in="noise" type="luminanceToAlpha" result="alphaNoise" />
<feComponentTransfer in="alphaNoise" result="coloredNoise1">
<feFuncA type="discrete" tableValues="1 1 1 1 1 1 1 1 1 1 1 1 1 1 1 1 1 1 1 1 1 1 1 1 1 1 1 1 1 1 1 1 1 1 1 1 1 1 1 1 1 1 1 1 1 1 1 1 1 1 1 0 0 0 0 0 0 0 0 0 0 0 0 0 0 0 0 0 0 0 0 0 0 0 0 0 0 0 0 0 0 0 0 0 0 0 0 0 0 0 0 0 0 0 0 0 0 0 0 0 "/>
</feComponentTransfer>
<feComposite operator="in" in2="shape" in="coloredNoise1" result="noise1Clipped" />
<feFlood flood-color="rgba(0, 0, 0, 0.25)" result="color1Flood" />
<feComposite operator="in" in2="noise1Clipped" in="color1Flood" result="color1" />
<feMerge result="effect1_noise_0_1">
<feMergeNode in="shape" />
<feMergeNode in="color1" />
</feMerge>
</filter>
</defs>
</svg>
